<svg width="19" height="16" viewBox="0 0 19 16" fill="none" xmlns="http://www.w3.org/2000/svg">
<path d="M18.2884 8.49638C18.3026 8.47904 18.3159 8.46108 18.3283 8.44251C18.3283 8.44251 18.3283 8.44251 18.3283 8.4422C18.3899 8.34963 18.4302 8.24157 18.4416 8.12485C18.4416 8.12485 18.4416 8.12485 18.4416 8.12455C18.4438 8.10194 18.445 8.07903 18.445 8.05581C18.445 8.03259 18.4438 8.00968 18.4416 7.98708C18.4416 7.98708 18.4416 7.98708 18.4416 7.98676C18.4302 7.87004 18.3899 7.762 18.3283 7.66943L18.3273 7.66787C18.3212 7.65828 18.2946 7.62268 18.2871 7.61369C18.2726 7.59604 18.2574 7.57932 18.2413 7.56323L11.8549 1.17482C11.5878 0.907633 11.1529 0.887818 10.8766 1.14541C10.5866 1.4157 10.5803 1.8702 10.8582 2.14822L13.9543 5.24521C14.7343 6.02541 14.1818 7.3592 13.079 7.3592H1.76982C1.39222 7.3592 1.07064 7.65301 1.05733 8.03042C1.0434 8.42672 1.36034 8.75243 1.75342 8.75243H13.079C14.1821 8.75243 14.7343 10.0865 13.9543 10.8664L10.8582 13.9634C10.5862 14.2355 10.5862 14.6764 10.8582 14.9485C10.9942 15.0845 11.1725 15.1526 11.3507 15.1526C11.529 15.1526 11.7073 15.0845 11.8431 14.9485L18.2413 8.54839C18.2574 8.53229 18.2726 8.51527 18.2871 8.49792C18.2875 8.49762 18.2878 8.49699 18.288 8.49669L18.2884 8.49638Z" fill="#121212"/>
</svg>
