<svg width="16" height="14" viewBox="0 0 16 14" fill="none" xmlns="http://www.w3.org/2000/svg">
<path d="M15.6333 7.37816C15.646 7.36256 15.658 7.3464 15.6691 7.32969C15.6691 7.32969 15.6691 7.32969 15.6691 7.32941C15.7247 7.24612 15.7609 7.14889 15.7712 7.04387C15.7712 7.04387 15.7712 7.04387 15.7712 7.04359C15.7731 7.02326 15.7742 7.00264 15.7742 6.98175C15.7742 6.96086 15.7731 6.94024 15.7712 6.9199C15.7712 6.9199 15.7712 6.9199 15.7712 6.91962C15.7609 6.81459 15.7247 6.71738 15.6691 6.63408L15.6683 6.63268C15.6628 6.62405 15.6388 6.59202 15.6321 6.58393C15.619 6.56805 15.6053 6.55301 15.5908 6.53853L9.84096 0.790304C9.60049 0.549889 9.20896 0.53206 8.96013 0.763839C8.69902 1.00704 8.69339 1.416 8.94364 1.66616L11.7312 4.4528C12.4333 5.15481 11.9359 6.35494 10.943 6.35494H0.76102C0.421052 6.35494 0.131521 6.61931 0.119539 6.9589C0.106999 7.31549 0.39235 7.60855 0.746251 7.60855H10.943C11.9362 7.60855 12.4333 8.80895 11.7312 9.51069L8.94364 12.2973C8.69869 12.5422 8.69869 12.9389 8.94364 13.1838C9.06603 13.3061 9.22653 13.3673 9.38704 13.3673C9.54754 13.3673 9.70805 13.3061 9.83036 13.1838L15.5908 7.42497C15.6053 7.41048 15.619 7.39516 15.6321 7.37955C15.6324 7.37928 15.6327 7.37872 15.6329 7.37844L15.6333 7.37816Z" fill="white"/>
</svg>
